<svg width="56" height="55" viewBox="0 0 56 55" fill="none" xmlns="http://www.w3.org/2000/svg">
<g clip-path="url(#clip0_37_102)">
<path fill-rule="evenodd" clip-rule="evenodd" d="M0.5 21.0886C1.08237 15.5536 3.60128 10.4022 7.61217 6.54375C11.6231 2.68525 16.868 0.367647 22.4214 0C22.2866 0.10803 22.1641 0.230551 22.0561 0.365357C17.233 6.29624 14.2202 13.4907 13.3779 21.0886H0.5ZM14.8471 35.0036C14.8471 35.1764 14.8537 35.348 14.8668 35.5182V45.3239C10.9585 43.6881 7.56244 41.0309 5.03467 37.6308C2.5069 34.2307 0.940585 30.2131 0.5 25.9993H13.3779C13.6646 28.5921 14.2029 31.1457 14.9886 33.6168C14.9007 34.0727 14.8533 34.5393 14.8471 35.0036ZM18.3239 26.0071H25.1989L18.9918 28.6943L18.7914 28.7846C18.5973 27.8641 18.4401 26.9363 18.32 26.0032L18.3239 26.0071ZM47.4346 21.0964H34.5411C33.702 13.4949 30.6905 6.29605 25.8668 0.361429C25.7573 0.227783 25.6335 0.106579 25.4975 0C31.0537 0.364084 36.3024 2.6801 40.3165 6.53893C44.3306 10.3978 46.8518 15.5511 47.4346 21.0886V21.0964ZM18.3239 21.0964H29.5989C28.9139 15.71 26.9837 10.5571 23.9614 6.04607C20.9397 10.5559 19.0096 15.7113 18.3239 21.0964ZM38.4107 26.3607C38.1414 26.2451 37.8513 26.1854 37.5582 26.1854C37.2651 26.1854 36.975 26.2451 36.7057 26.3607L21.0936 33.1257C20.9321 33.1974 20.7793 33.287 20.6379 33.3929C20.221 33.6251 19.874 33.9648 19.6329 34.3765C19.3918 34.7883 19.2654 35.2571 19.2668 35.7343V47.63C19.2668 48.3411 19.5493 49.0231 20.0521 49.5259C20.5549 50.0288 21.2369 50.3113 21.948 50.3113C22.6591 50.3113 23.3411 50.0288 23.844 49.5259C24.3468 49.0231 24.6293 48.3411 24.6293 47.63V38.5943L36.7057 43.8232C37.2518 44.0589 37.8686 44.0589 38.4107 43.8232L54.0229 37.0621C54.4067 36.8958 54.7336 36.6209 54.9632 36.2712C55.1928 35.9215 55.3151 35.5123 55.3151 35.0939C55.3151 34.6756 55.1928 34.2664 54.9632 33.9167C54.7336 33.567 54.4067 33.292 54.0229 33.1257L38.4107 26.3607ZM26.8882 44.0786L34.8396 47.5239C35.6972 47.8953 36.6217 48.0869 37.5563 48.0869C38.4907 48.0869 39.4153 47.8953 40.2729 47.5239L48.2243 44.0786V49.4136C48.2243 49.885 48.075 50.3407 47.7921 50.71L46.0832 49.4136L47.7882 50.7139L47.7843 50.7218L47.7764 50.7296L47.7607 50.7532L47.7136 50.8121C47.5116 51.0555 47.2951 51.2863 47.0654 51.5036C46.6332 51.9121 46.0046 52.4346 45.1679 52.9493C43.4746 53.9864 40.9604 54.9686 37.5582 54.9686C34.1561 54.9686 31.6418 53.9864 29.9525 52.9454C29.0707 52.3989 28.265 51.7384 27.5561 50.9811L27.4107 50.8082L27.3636 50.7493L27.3479 50.7257L27.34 50.7179V50.71H27.3321C27.0524 50.3371 26.9008 49.8837 26.9 49.4175L26.8843 44.0746L26.8882 44.0786Z" fill="white"/>
</g>
<defs>
<clipPath id="clip0_37_102">
<rect width="55" height="55" fill="white" transform="translate(0.5)"/>
</clipPath>
</defs>
</svg>
