<svg width="70" height="71" viewBox="0 0 70 71" fill="none" xmlns="http://www.w3.org/2000/svg">
<path d="M37.1875 34.4063L36.0937 17.1775C36.0937 16.5974 35.8633 16.041 35.453 15.6307C35.0428 15.2205 34.4864 14.99 33.9062 14.99C33.3261 14.99 32.7697 15.2205 32.3594 15.6307C31.9492 16.041 31.7187 16.5974 31.7187 17.1775L30.7015 33.2403L24.1303 37.5278C23.6279 37.8182 23.2614 38.2963 23.1114 38.8569C22.9615 39.4174 23.0404 40.0146 23.3308 40.5171C23.6211 41.0195 24.0992 41.386 24.6598 41.5359C25.2204 41.6859 25.8176 41.607 26.32 41.3166L33.5519 37.646C33.67 37.6635 33.7881 37.6853 33.9128 37.6853C35.7284 37.6853 37.194 36.2197 37.194 34.4041L37.1875 34.4063ZM41.4312 47.4328C41.0563 47.6482 40.7537 47.97 40.5618 48.3574C40.3698 48.7449 40.2971 49.1805 40.3528 49.6093C40.4085 50.0381 40.5902 50.4407 40.8748 50.7662C41.1594 51.0917 41.5342 51.3254 41.9517 51.4378C42.3692 51.5503 42.8107 51.5363 43.2203 51.3977C43.6298 51.2591 43.9891 51.0022 44.2526 50.6594C44.5161 50.3165 44.6719 49.9033 44.7004 49.4718C44.729 49.0404 44.6289 48.6102 44.4128 48.2357C44.1231 47.7335 43.6458 47.3668 43.086 47.2163C42.5261 47.0658 41.9293 47.1437 41.4268 47.4328H41.4312ZM43.6143 17.591C43.1111 17.3018 42.5135 17.2243 41.9531 17.3757C41.3927 17.5271 40.9154 17.8949 40.6262 18.3982C40.337 18.9014 40.2596 19.499 40.411 20.0594C40.5623 20.6198 40.9301 21.0971 41.4334 21.3863C41.937 21.6755 42.5348 21.7528 43.0954 21.6012C43.656 21.4496 44.1334 21.0816 44.4226 20.578C44.7118 20.0744 44.7892 19.4766 44.6376 18.916C44.486 18.3554 44.1179 17.878 43.6143 17.5888V17.591ZM47.7378 44.9172C47.9868 45.0606 48.2617 45.1534 48.5467 45.1906C48.8316 45.2277 49.1211 45.2083 49.3986 45.1336C49.676 45.0588 49.9361 44.9302 50.1638 44.7549C50.3916 44.5797 50.5826 44.3613 50.7259 44.1122C50.8693 43.8632 50.9621 43.5883 50.9993 43.3033C51.0364 43.0184 51.017 42.7289 50.9423 42.4514C50.8675 42.174 50.7389 41.9139 50.5636 41.6862C50.3884 41.4584 50.17 41.2674 49.9209 41.1241C49.4179 40.8346 48.8205 40.7568 48.2601 40.9077C47.6997 41.0587 47.2223 41.4261 46.9328 41.9291C46.6433 42.4321 46.5655 43.0295 46.7164 43.5899C46.8674 44.1503 47.2348 44.6277 47.7378 44.9172ZM49.9253 27.6863C50.1742 27.5425 50.3924 27.3511 50.5673 27.123C50.7423 26.8949 50.8706 26.6346 50.9449 26.3569C51.0193 26.0793 51.0382 25.7897 51.0006 25.5047C50.963 25.2197 50.8697 24.9449 50.7259 24.696C50.5821 24.4471 50.3907 24.2289 50.1627 24.0539C49.9346 23.879 49.6742 23.7507 49.3966 23.6763C49.1189 23.602 48.8293 23.5831 48.5443 23.6206C48.2593 23.6582 47.9845 23.7516 47.7356 23.8953C47.2329 24.1854 46.866 24.6633 46.7157 25.2239C46.5653 25.7845 46.6438 26.3818 46.9339 26.8846C47.224 27.3873 47.7019 27.7542 48.2625 27.9045C48.823 28.0549 49.4226 27.9764 49.9253 27.6863ZM53.3269 34.4063C53.3269 33.2032 52.3469 32.2188 51.1394 32.2188C50.7067 32.2188 50.2838 32.3471 49.924 32.5874C49.5643 32.8278 49.2839 33.1694 49.1184 33.5692C48.9528 33.9689 48.9095 34.4087 48.9939 34.833C49.0783 35.2574 49.2866 35.6471 49.5926 35.9531C49.8985 36.259 50.2883 36.4673 50.7126 36.5517C51.1369 36.6362 51.5768 36.5928 51.9765 36.4273C52.3762 36.2617 52.7178 35.9813 52.9582 35.6216C53.1986 35.2619 53.3269 34.8389 53.3269 34.4063ZM20.8819 26.8857C21.0401 26.6367 21.1464 26.3583 21.1943 26.0671C21.2422 25.776 21.2307 25.4782 21.1605 25.1917C21.0903 24.9051 20.9629 24.6357 20.7859 24.3997C20.6089 24.1637 20.3859 23.9659 20.1305 23.8182C19.8751 23.6706 19.5924 23.5762 19.2996 23.5406C19.0067 23.505 18.7096 23.529 18.4263 23.6112C18.143 23.6934 17.8792 23.8321 17.6508 24.0189C17.4224 24.2057 17.2342 24.4367 17.0975 24.6982C16.8421 25.1973 16.7881 25.7755 16.9467 26.3133C17.1052 26.8511 17.4643 27.3075 17.9496 27.5882C18.435 27.8689 19.0096 27.9526 19.5549 27.8218C20.1001 27.6911 20.5766 27.356 20.8819 26.8857ZM14.49 34.4063C14.4906 34.987 14.7218 35.5437 15.1329 35.954C15.5439 36.3642 16.1011 36.5944 16.6819 36.5938C17.2626 36.5932 17.8193 36.3619 18.2296 35.9509C18.6398 35.5398 18.8699 34.9826 18.8694 34.4019C18.8688 33.8212 18.6375 33.2644 18.2265 32.8542C17.8154 32.444 17.2582 32.2138 16.6775 32.2144C16.0967 32.215 15.54 32.4462 15.1298 32.8573C14.7195 33.2684 14.4894 33.8255 14.49 34.4063ZM20.079 44.9172C20.6596 44.9166 21.2162 44.6855 21.6264 44.2747C22.0366 43.8639 22.2668 43.307 22.2665 42.7264C22.2662 42.1459 22.0354 41.5892 21.6248 41.1788C21.2142 40.7684 20.6574 40.5378 20.0769 40.5378C19.4963 40.5378 18.9395 40.7684 18.5289 41.1788C18.1183 41.5892 17.8875 42.1459 17.8872 42.7264C17.8869 43.307 18.1171 43.8639 18.5273 44.2747C18.9376 44.6855 19.4941 44.9166 20.0747 44.9172H20.079ZM26.3834 21.3797C26.8858 21.0896 27.2524 20.6118 27.4026 20.0515C27.5527 19.4911 27.4741 18.894 27.184 18.3916C26.9682 18.0171 26.6461 17.715 26.2585 17.5235C25.8709 17.3321 25.4353 17.2599 25.0066 17.3161C24.578 17.3723 24.1757 17.5543 23.8506 17.8392C23.5254 18.1241 23.2921 18.499 23.18 18.9165C23.068 19.334 23.0823 19.7754 23.2212 20.1848C23.36 20.5941 23.6172 20.9531 23.9601 21.2164C24.303 21.4796 24.7163 21.6352 25.1476 21.6635C25.579 21.6918 26.0091 21.5915 26.3834 21.3753V21.3797ZM31.7209 51.6372C31.7074 51.9324 31.7539 52.2273 31.8574 52.504C31.961 52.7808 32.1196 53.0337 32.3236 53.2474C32.5276 53.4612 32.7729 53.6314 33.0445 53.7478C33.3161 53.8642 33.6084 53.9244 33.9039 53.9247C34.1994 53.925 34.4919 53.8654 34.7638 53.7495C35.0356 53.6337 35.2812 53.464 35.4856 53.2506C35.69 53.0372 35.8491 52.7847 35.9533 52.5081C36.0574 52.2316 36.1045 51.9368 36.0915 51.6416C36.0669 51.0789 35.8262 50.5474 35.4195 50.1577C35.0129 49.768 34.4716 49.5502 33.9083 49.5497C33.3451 49.5491 32.8033 49.7658 32.3959 50.1547C31.9884 50.5435 31.7467 51.0746 31.7209 51.6372ZM23.3953 48.2357C22.7937 49.2857 23.1547 50.62 24.1959 51.2216C24.5706 51.4382 25.0011 51.5388 25.433 51.5106C25.8648 51.4825 26.2786 51.3268 26.622 51.0634C26.9654 50.8001 27.223 50.4407 27.3621 50.0309C27.5012 49.6211 27.5156 49.1792 27.4035 48.7612C27.2915 48.3432 27.0579 47.9678 26.7324 47.6826C26.4069 47.3974 26.0042 47.2151 25.5751 47.1588C25.146 47.1025 24.7098 47.1748 24.3218 47.3665C23.9338 47.5582 23.6114 47.8607 23.3953 48.2357ZM62.7222 31.3153L55.569 28.721C56.2034 31.1403 56.4659 33.6975 56.2472 36.3335C55.1687 48.6666 44.3253 57.7885 31.9834 56.7472C26.0615 56.2315 20.5861 53.3876 16.7586 48.8395C12.9311 44.2915 11.0642 38.4108 11.5675 32.4878C12.6459 20.1503 23.485 11.0241 35.8225 12.0675C40.917 12.5145 45.7019 14.703 49.3718 18.2647L45.7909 21.2769L61.169 26.8507L58.3078 10.7419L54.4359 14.0078C49.7678 9.30472 43.505 6.1394 36.389 5.5269C20.4422 4.15753 6.39841 15.9744 5.02029 31.9257C3.6531 47.8725 15.47 61.9163 31.4147 63.2944C47.3681 64.6594 61.4118 52.8447 62.7878 36.8978C62.9497 35.0035 62.9125 33.1397 62.7222 31.3197V31.3153Z" fill="white"/>
</svg>
