<svg width="36" height="36" viewBox="0 0 36 36" fill="none" xmlns="http://www.w3.org/2000/svg">
<path d="M18.008 8.77005C12.899 8.77005 8.77809 12.891 8.77809 18C8.77809 23.109 12.899 27.2299 18.008 27.2299C23.117 27.2299 27.238 23.109 27.238 18C27.238 12.891 23.117 8.77005 18.008 8.77005ZM18.008 24.0007C14.7065 24.0007 12.0074 21.3096 12.0074 18C12.0074 14.6904 14.6984 11.9993 18.008 11.9993C21.3176 11.9993 24.0087 14.6904 24.0087 18C24.0087 21.3096 21.3096 24.0007 18.008 24.0007ZM29.7684 8.3925C29.7684 9.58942 28.8044 10.5454 27.6155 10.5454C26.4186 10.5454 25.4627 9.58139 25.4627 8.3925C25.4627 7.20361 26.4266 6.23965 27.6155 6.23965C28.8044 6.23965 29.7684 7.20361 29.7684 8.3925ZM35.8815 10.5775C35.745 7.69363 35.0862 5.13913 32.9736 3.03447C30.8689 0.929822 28.3144 0.271115 25.4305 0.12652C22.4583 -0.0421734 13.5497 -0.0421734 10.5775 0.12652C7.70166 0.263082 5.14716 0.921789 3.03448 3.02644C0.92179 5.13109 0.271115 7.6856 0.12652 10.5695C-0.0421734 13.5417 -0.0421734 22.4503 0.12652 25.4225C0.263082 28.3064 0.92179 30.8609 3.03448 32.9655C5.14716 35.0702 7.69363 35.7289 10.5775 35.8735C13.5497 36.0422 22.4583 36.0422 25.4305 35.8735C28.3144 35.7369 30.8689 35.0782 32.9736 32.9655C35.0782 30.8609 35.7369 28.3064 35.8815 25.4225C36.0502 22.4503 36.0502 13.5497 35.8815 10.5775ZM32.0417 28.6116C31.4151 30.1861 30.2022 31.3991 28.6197 32.0337C26.2499 32.9736 20.6268 32.7567 18.008 32.7567C15.3893 32.7567 9.75812 32.9655 7.39641 32.0337C5.82193 31.4071 4.60895 30.1941 3.97434 28.6116C3.03448 26.2419 3.25137 20.6188 3.25137 18C3.25137 15.3812 3.04251 9.75008 3.97434 7.38837C4.60091 5.8139 5.8139 4.60091 7.39641 3.96631C9.76615 3.02644 15.3893 3.24333 18.008 3.24333C20.6268 3.24333 26.258 3.03447 28.6197 3.96631C30.1941 4.59288 31.4071 5.80587 32.0417 7.38837C32.9816 9.75812 32.7647 15.3812 32.7647 18C32.7647 20.6188 32.9816 26.2499 32.0417 28.6116Z" fill="#1B4583"/>
</svg>
