<svg width="36" height="36" viewBox="0 0 36 36" fill="none" xmlns="http://www.w3.org/2000/svg">
<path d="M8.05821 35.9992H0.594643V11.9644H8.05821V35.9992ZM4.32241 8.6858C1.9358 8.6858 0 6.70902 0 4.32241C1.70823e-08 3.17604 0.455396 2.07661 1.266 1.266C2.07661 0.455396 3.17604 0 4.32241 0C5.46879 0 6.56821 0.455396 7.37882 1.266C8.18943 2.07661 8.64482 3.17604 8.64482 4.32241C8.64482 6.70902 6.70821 8.6858 4.32241 8.6858ZM35.992 35.9992H28.5445V24.2992C28.5445 21.5108 28.4882 17.9349 24.664 17.9349C20.7836 17.9349 20.1889 20.9644 20.1889 24.0983V35.9992H12.7334V11.9644H19.8916V15.2429H19.9961C20.9925 13.3546 23.4265 11.3617 27.0579 11.3617C34.6114 11.3617 36 16.3358 36 22.7965V35.9992H35.992Z" fill="#1B4583"/>
</svg>
