<svg width="51" height="50" viewBox="0 0 51 50" fill="none" xmlns="http://www.w3.org/2000/svg">
<g clip-path="url(#clip0_19_284)">
<path d="M50.4422 14.25C50.4297 14.2031 50.4062 14.1625 50.3891 14.1172C50.3596 14.033 50.323 13.9514 50.2797 13.8734C50.2024 13.7613 50.1178 13.6543 50.0266 13.5531C49.9829 13.513 49.937 13.4755 49.8891 13.4406C49.8478 13.4029 49.8045 13.3674 49.7594 13.3344L49.6906 13.3031L49.6359 13.2656L40.2609 8.57812C40.0441 8.46975 39.8049 8.41333 39.5625 8.41333C39.3201 8.41333 39.0809 8.46975 38.8641 8.57812L29.4891 13.2656L29.4344 13.3031L29.3656 13.3344C29.3205 13.3674 29.2772 13.4029 29.2359 13.4406C29.1203 13.5204 29.0211 13.6217 28.9438 13.7391C28.908 13.782 28.8747 13.8269 28.8438 13.8734C28.8009 13.9515 28.7649 14.033 28.7359 14.1172C28.7203 14.1625 28.6953 14.2031 28.6828 14.25C28.6451 14.3848 28.6256 14.5241 28.625 14.6641V23.0734L22.375 26.1984V8.41406C22.3744 8.27407 22.3549 8.1348 22.3172 8C22.3047 7.95312 22.2812 7.9125 22.2641 7.86718C22.2346 7.78296 22.198 7.70141 22.1547 7.62343C22.1243 7.57692 22.0914 7.53207 22.0562 7.48906C21.9789 7.37173 21.8797 7.27041 21.7641 7.19062C21.7228 7.15291 21.6795 7.11744 21.6344 7.08437L21.5656 7.05312L21.5109 7.01562L12.1359 2.32812C11.9191 2.21975 11.6799 2.16333 11.4375 2.16333C11.1951 2.16333 10.9559 2.21975 10.7391 2.32812L1.36406 7.01562L1.30937 7.05312L1.24063 7.08437C1.19553 7.11744 1.15223 7.15291 1.11094 7.19062C1.06301 7.22548 1.0171 7.26304 0.973438 7.30312C0.916609 7.36095 0.864368 7.42312 0.817187 7.48906C0.782009 7.53207 0.74915 7.57692 0.71875 7.62343C0.675936 7.70146 0.639867 7.78301 0.610938 7.86718C0.595313 7.9125 0.570312 7.95312 0.557813 8C0.52008 8.1348 0.500635 8.27407 0.5 8.41406L0.5 38.1016C0.500155 38.3917 0.581067 38.676 0.733675 38.9227C0.886284 39.1694 1.10456 39.3688 1.36406 39.4984L10.7391 44.1859L20.1141 48.8734C20.1359 48.8844 20.1609 48.8812 20.1859 48.8906C20.3806 48.9875 20.5951 49.0379 20.8125 49.0379C21.0299 49.0379 21.2444 48.9875 21.4391 48.8906C21.4625 48.8812 21.4891 48.8844 21.5109 48.875L40.2609 39.5C40.5207 39.3702 40.7391 39.1706 40.8917 38.9236C41.0444 38.6766 41.1251 38.3919 41.125 38.1016V29.6922L49.6359 25.4359C49.8954 25.3063 50.1137 25.1069 50.2663 24.8602C50.4189 24.6135 50.4998 24.3292 50.5 24.0391V14.6641C50.4994 14.5241 50.4799 14.3848 50.4422 14.25ZM14.9312 33.4141L21.5109 30.1234H21.5125L30.1875 25.7859L36.0687 28.7266L20.8125 36.3547L14.9312 33.4141ZM38 20.3172V26.1984L31.75 23.0734V17.1922L38 20.3172ZM39.5625 11.7234L45.4437 14.6641L39.5625 17.6047L33.6813 14.6641L39.5625 11.7234ZM13 30.8859V14.0672L19.25 10.9422V27.7609L13 30.8859ZM11.4375 5.47343L17.3188 8.41406L11.4375 11.3547L5.55625 8.41406L11.4375 5.47343ZM3.625 10.9422L9.875 14.0672V40.2609L3.625 37.1359V10.9422ZM13 35.9422L19.25 39.0672V44.9484L13 41.8234V35.9422ZM38 37.1359L22.375 44.9484V39.0672L38 31.2547V37.1359ZM47.375 23.0734L41.125 26.1984V20.3172L47.375 17.1922V23.0734Z" fill="#FF5252"/>
</g>
<defs>
<clipPath id="clip0_19_284">
<rect width="50" height="50" fill="white" transform="translate(0.5)"/>
</clipPath>
</defs>
</svg>
