<svg width="51" height="50" viewBox="0 0 51 50" fill="none" xmlns="http://www.w3.org/2000/svg">
<path d="M19.1004 38.3281C19.1004 38.3281 17.2383 39.4117 20.4273 39.7773C24.2914 40.2187 26.266 40.1555 30.523 39.3508C30.523 39.3508 31.6445 40.052 33.2078 40.6598C23.6613 44.7496 11.6031 40.4227 19.1004 38.3281ZM17.9332 32.9902C17.9332 32.9902 15.8441 34.5367 19.0359 34.8672C23.1637 35.2934 26.4227 35.3281 32.0648 34.2422C32.0648 34.2422 32.8434 35.0332 34.0695 35.4652C22.5297 38.8402 9.67656 35.7309 17.9332 32.9902Z" fill="#0074BD"/>
<path d="M27.7664 23.934C30.1199 26.643 27.1492 29.0785 27.1492 29.0785C27.1492 29.0785 33.1214 25.9961 30.3793 22.1344C27.8171 18.5348 25.8531 16.7469 36.4867 10.5797C36.4867 10.5801 19.7949 14.7477 27.7664 23.934Z" fill="#EA2D2E"/>
<path d="M40.3918 42.277C40.3918 42.277 41.7703 43.4137 38.8731 44.2922C33.3645 45.961 15.941 46.4641 11.102 44.359C9.3633 43.602 12.625 42.5524 13.6512 42.3309C14.7211 42.0992 15.3321 42.1414 15.3321 42.1414C13.3973 40.7793 2.82697 44.8172 9.96369 45.9754C29.425 49.1301 45.4391 44.5547 40.3918 42.277ZM19.9969 27.4586C19.9969 27.4586 11.1352 29.5637 16.859 30.3289C19.2762 30.6524 24.0926 30.5782 28.5821 30.2016C32.25 29.8934 35.9309 29.2352 35.9309 29.2352C35.9309 29.2352 34.6387 29.7895 33.7028 30.4278C24.702 32.7953 7.31838 31.6926 12.3235 29.2723C16.5547 27.2258 19.9969 27.4586 19.9969 27.4586ZM35.8942 36.3442C45.043 31.5914 40.8125 27.0239 37.8598 27.6391C37.1379 27.7895 36.8141 27.9203 36.8141 27.9203C36.8141 27.9203 37.0828 27.4989 37.5953 27.3176C43.4364 25.2649 47.9278 33.3735 35.7114 36.5852C35.7114 36.5844 35.8516 36.4574 35.8942 36.3442Z" fill="#0074BD"/>
<path d="M30.3793 0.619873C30.3793 0.619873 35.4449 5.68862 25.5735 13.4804C17.6571 19.7328 23.7684 23.2968 25.5707 27.3707C20.9492 23.2015 17.5594 19.5308 19.8332 16.1148C23.1723 11.1015 32.4227 8.66987 30.3793 0.619873Z" fill="#EA2D2E"/>
<path d="M20.896 49.227C29.6757 49.7883 43.1617 48.9145 43.4808 44.7598C43.4808 44.7598 42.8671 46.3348 36.2242 47.5844C28.7296 48.9953 19.4843 48.8309 14.0027 47.9258C14.0027 47.9262 15.1257 48.8559 20.896 49.227Z" fill="#0074BD"/>
</svg>
