<svg width="56" height="55" viewBox="0 0 56 55" fill="none" xmlns="http://www.w3.org/2000/svg">
<path d="M14.25 43.6563L18.7761 41.8229C18.3941 40.7153 18.0412 39.5886 17.7173 38.4427C17.3934 37.2969 17.1352 36.1511 16.9427 35.0052L14.25 36.8386V43.6563ZM23.4167 41.25H32.5834C33.2709 39.7222 33.8247 37.8606 34.2448 35.6652C34.665 33.4698 34.875 31.2255 34.875 28.9323C34.875 25.1511 34.2448 21.5707 32.9844 18.1913C31.724 14.8118 30.0625 12.2047 28 10.3698C25.9375 12.2031 24.2761 14.8103 23.0156 18.1913C21.7552 21.5722 21.125 25.1526 21.125 28.9323C21.125 31.224 21.3351 33.4683 21.7552 35.6652C22.1754 37.8622 22.7292 39.7238 23.4167 41.25ZM28 29.7917C26.7396 29.7917 25.661 29.3433 24.7642 28.4465C23.8674 27.5497 23.4182 26.4703 23.4167 25.2084C23.4152 23.9464 23.8643 22.8678 24.7642 21.9725C25.664 21.0772 26.7427 20.6281 28 20.625C29.2574 20.622 30.3368 21.0711 31.2381 21.9725C32.1395 22.8739 32.5879 23.9525 32.5834 25.2084C32.5788 26.4642 32.1304 27.5436 31.2381 28.4465C30.3459 29.3494 29.2665 29.7978 28 29.7917ZM41.75 43.6563V36.8386L39.0573 35.0052C38.8663 36.1511 38.6089 37.2969 38.285 38.4427C37.9611 39.5886 37.6075 40.7153 37.224 41.8229L41.75 43.6563ZM28 4.52606C31.7813 7.27606 34.6367 10.7709 36.5663 15.0104C38.4959 19.25 39.4599 24.1771 39.4584 29.7917L44.2709 33C44.9202 33.4202 45.4266 33.974 45.7902 34.6615C46.1538 35.349 46.3349 36.0747 46.3334 36.8386V50.4167L34.9323 45.8334H21.0677L9.66669 50.4167V36.8386C9.66669 36.0747 9.84849 35.349 10.2121 34.6615C10.5757 33.974 11.0814 33.4202 11.7292 33L16.5417 29.7917C16.5417 24.1771 17.5065 19.25 19.4361 15.0104C21.3656 10.7709 24.2203 7.27606 28 4.52606Z" fill="white"/>
</svg>
