<svg width="37" height="37" viewBox="0 0 37 37" fill="none" xmlns="http://www.w3.org/2000/svg">
<path d="M31.108 5.37656C27.7411 1.90781 23.2571 0 18.492 0C8.65625 0 0.652679 8.22589 0.652679 18.3348C0.652679 21.5641 1.47232 24.719 3.03125 27.5022L0.5 37L9.95804 34.448C12.5616 35.9098 15.4946 36.6779 18.4839 36.6779H18.492C28.3196 36.6779 36.5 28.452 36.5 18.3431C36.5 13.4455 34.475 8.84531 31.108 5.37656ZM18.492 33.5891C15.8241 33.5891 13.2125 32.854 10.9384 31.4665L10.4 31.1362L4.79107 32.6475L6.28571 27.0232L5.93214 26.4451C4.44554 24.017 3.66607 21.2172 3.66607 18.3348C3.66607 9.93549 10.3196 3.0971 18.5 3.0971C22.4616 3.0971 26.1821 4.68281 28.9786 7.56518C31.775 10.4475 33.4946 14.2714 33.4866 18.3431C33.4866 26.7507 26.6643 33.5891 18.492 33.5891ZM26.6241 22.1752C26.1821 21.944 23.9884 20.8373 23.5786 20.6886C23.1688 20.5317 22.8714 20.4574 22.5741 20.9199C22.2768 21.3824 21.425 22.4065 21.1598 22.7203C20.9027 23.0259 20.6375 23.0672 20.1955 22.8359C17.5759 21.4897 15.8563 20.4326 14.1286 17.385C13.6705 16.5757 14.5866 16.6335 15.4384 14.8826C15.583 14.577 15.5107 14.3127 15.3982 14.0815C15.2857 13.8502 14.3938 11.5955 14.0241 10.6788C13.6625 9.78683 13.2929 9.91071 13.0196 9.8942C12.7625 9.87768 12.4652 9.87768 12.1679 9.87768C11.8705 9.87768 11.3884 9.9933 10.9786 10.4475C10.5687 10.91 9.41964 12.0167 9.41964 14.2714C9.41964 16.5261 11.0188 18.7065 11.2357 19.0121C11.4607 19.3176 14.3777 23.9426 18.8536 25.933C21.6821 27.1884 22.7911 27.2958 24.2054 27.081C25.0652 26.9489 26.8411 25.9743 27.2107 24.9007C27.5804 23.827 27.5804 22.9103 27.4679 22.7203C27.3634 22.5138 27.0661 22.3982 26.6241 22.1752Z" fill="#1B4583"/>
</svg>
