<svg width="56" height="55" viewBox="0 0 56 55" fill="none" xmlns="http://www.w3.org/2000/svg">
<path d="M28 6.8819C27.0981 6.8819 26.205 7.05955 25.3717 7.4047C24.5384 7.74986 23.7813 8.25576 23.1435 8.89352C22.5057 9.53129 21.9998 10.2884 21.6547 11.1217C21.3095 11.955 21.1319 12.8481 21.1319 13.75C21.1319 14.652 21.3095 15.5451 21.6547 16.3783C21.9998 17.2116 22.5057 17.9688 23.1435 18.6065C23.7813 19.2443 24.5384 19.7502 25.3717 20.0953C26.205 20.4405 27.0981 20.6181 28 20.6181C29.8215 20.6181 31.5685 19.8945 32.8565 18.6065C34.1445 17.3185 34.8681 15.5716 34.8681 13.75C34.8681 11.9285 34.1445 10.1815 32.8565 8.89352C31.5685 7.6055 29.8215 6.8819 28 6.8819ZM43.4688 10.3125C42.1012 10.3125 40.7897 10.8558 39.8227 11.8228C38.8557 12.7897 38.3125 14.1012 38.3125 15.4688C38.3125 16.8363 38.8557 18.1478 39.8227 19.1148C40.7897 20.0818 42.1012 20.625 43.4688 20.625C44.8363 20.625 46.1478 20.0818 47.1148 19.1148C48.0818 18.1478 48.625 16.8363 48.625 15.4688C48.625 14.1012 48.0818 12.7897 47.1148 11.8228C46.1478 10.8558 44.8363 10.3125 43.4688 10.3125ZM12.5313 10.3125C11.1637 10.3125 9.85222 10.8558 8.88523 11.8228C7.91825 12.7897 7.375 14.1012 7.375 15.4688C7.375 16.8363 7.91825 18.1478 8.88523 19.1148C9.85222 20.0818 11.1637 20.625 12.5313 20.625C13.8988 20.625 15.2103 20.0818 16.1773 19.1148C17.1443 18.1478 17.6875 16.8363 17.6875 15.4688C17.6875 14.1012 17.1443 12.7897 16.1773 11.8228C15.2103 10.8558 13.8988 10.3125 12.5313 10.3125ZM17.6875 27.476C17.6939 26.5685 18.0588 25.7003 18.7028 25.0608C19.3468 24.4214 20.2175 24.0625 21.125 24.0625H34.875C35.7867 24.0625 36.661 24.4247 37.3057 25.0693C37.9503 25.714 38.3125 26.5883 38.3125 27.5V37.8125C38.3134 38.8945 38.144 39.9698 37.8106 40.9991C37.0495 43.3321 35.4815 45.3174 33.3883 46.5984C31.2951 47.8794 28.8138 48.3723 26.39 47.9885C23.9661 47.6046 21.7585 46.3693 20.1635 44.5042C18.5685 42.6392 17.6906 40.2666 17.6875 37.8125V27.476ZM14.25 27.5C14.25 26.2453 14.5834 25.0731 15.1713 24.0625H7.375C6.46332 24.0625 5.58898 24.4247 4.94432 25.0693C4.29966 25.714 3.9375 26.5883 3.9375 27.5V36.0938C3.93703 37.5008 4.28203 38.8863 4.94219 40.1288C5.60235 41.3713 6.55748 42.4327 7.72371 43.2198C8.88993 44.0069 10.2316 44.4957 11.6308 44.6431C13.0301 44.7905 14.4441 44.5921 15.7488 44.0653C14.7615 42.1278 14.2478 39.9837 14.25 37.8091V27.5ZM41.75 27.5V37.8125C41.75 40.0641 41.2103 42.1885 40.2513 44.0653C41.5559 44.5921 42.9699 44.7905 44.3692 44.6431C45.7684 44.4957 47.1101 44.0069 48.2763 43.2198C49.4425 42.4327 50.3977 41.3713 51.0578 40.1288C51.718 38.8863 52.063 37.5008 52.0625 36.0938V27.5C52.0625 26.5883 51.7003 25.714 51.0557 25.0693C50.411 24.4247 49.5367 24.0625 48.625 24.0625H40.8288C41.4131 25.0731 41.75 26.2453 41.75 27.5Z" fill="white"/>
</svg>
