<svg width="42" height="46" viewBox="0 0 42 46" fill="none" xmlns="http://www.w3.org/2000/svg">
<g clip-path="url(#clip0_19_247)">
<path d="M5.37502 0C2.50002 0 0.166687 2.33333 0.166687 5.20833V10.05C0.167797 11.1639 0.466587 12.2573 1.03213 13.217C1.59768 14.1766 2.40943 14.9677 3.38335 15.5083L15.3667 22.1708C12.8567 23.438 10.8472 25.5144 9.6629 28.0645C8.47861 30.6147 8.18869 33.4896 8.83998 36.2249C9.49127 38.9602 11.0457 41.396 13.2522 43.1387C15.4587 44.8815 18.1883 45.8295 21 45.8295C23.8118 45.8295 26.5414 44.8815 28.7478 43.1387C30.9543 41.396 32.5088 38.9602 33.1601 36.2249C33.8114 33.4896 33.5214 30.6147 32.3371 28.0645C31.1528 25.5144 29.1434 23.438 26.6334 22.1708L38.6209 15.5125C39.5946 14.971 40.4059 14.179 40.9708 13.2186C41.5356 12.2582 41.8334 11.1642 41.8334 10.05V5.20833C41.8334 2.33333 39.5 0 36.625 0H5.37502ZM16.8334 18.2167V4.16667H25.1667V18.2167L21 20.5333L16.8334 18.2167ZM29.3334 33.3333C29.3334 35.5435 28.4554 37.6631 26.8926 39.2259C25.3298 40.7887 23.2102 41.6667 21 41.6667C18.7899 41.6667 16.6703 40.7887 15.1075 39.2259C13.5447 37.6631 12.6667 35.5435 12.6667 33.3333C12.6667 31.1232 13.5447 29.0036 15.1075 27.4408C16.6703 25.878 18.7899 25 21 25C23.2102 25 25.3298 25.878 26.8926 27.4408C28.4554 29.0036 29.3334 31.1232 29.3334 33.3333Z" fill="#1B4583"/>
</g>
<defs>
<clipPath id="clip0_19_247">
<rect width="41.6667" height="45.8295" fill="white" transform="translate(0.166687)"/>
</clipPath>
</defs>
</svg>
