<svg width="70" height="71" viewBox="0 0 70 71" fill="none" xmlns="http://www.w3.org/2000/svg">
<path d="M55.4167 12.1667H43.225C42.6278 10.4617 41.5155 8.98448 40.042 7.93933C38.5684 6.89417 36.8065 6.33276 35 6.33276C33.1935 6.33276 31.4316 6.89417 29.958 7.93933C28.4845 8.98448 27.3722 10.4617 26.775 12.1667H14.5833C13.0377 12.1713 11.5566 12.7874 10.4636 13.8803C9.37068 14.9733 8.75462 16.4543 8.75 18V58.8334C8.75462 60.379 9.37068 61.8601 10.4636 62.953C11.5566 64.046 13.0377 64.6621 14.5833 64.6667H55.4167C56.9623 64.6621 58.4434 64.046 59.5364 62.953C60.6293 61.8601 61.2454 60.379 61.25 58.8334V18C61.2454 16.4543 60.6293 14.9733 59.5364 13.8803C58.4434 12.7874 56.9623 12.1713 55.4167 12.1667ZM35 12.1667C35.5769 12.1667 36.1408 12.3377 36.6204 12.6582C37.1001 12.9787 37.4739 13.4342 37.6946 13.9672C37.9154 14.5001 37.9732 15.0866 37.8606 15.6524C37.7481 16.2181 37.4703 16.7378 37.0624 17.1457C36.6545 17.5537 36.1348 17.8314 35.569 17.944C35.0032 18.0565 34.4168 17.9988 33.8838 17.778C33.3509 17.5572 32.8954 17.1834 32.5749 16.7038C32.2544 16.2241 32.0833 15.6602 32.0833 15.0834C32.0856 14.3105 32.3937 13.57 32.9402 13.0235C33.4866 12.477 34.2272 12.169 35 12.1667ZM29.1667 26.75L37.3042 34.8992L44.6542 27.5492L40.8333 23.8334H52.5V35.5L48.7783 31.6763L37.31 43.1534L29.1667 35.0042L21.6242 42.5409L17.5 38.4167L29.1667 26.75ZM55.4167 55.9167H14.5833V50.0834H55.4167V55.9167Z" fill="white"/>
</svg>
