<svg width="51" height="50" viewBox="0 0 51 50" fill="none" xmlns="http://www.w3.org/2000/svg">
<g clip-path="url(#clip0_19_294)">
<path d="M38.7812 0H12.2188C5.74666 0 0.5 5.24666 0.5 11.7188V38.2812C0.5 44.7533 5.74666 50 12.2188 50H38.7812C45.2533 50 50.5 44.7533 50.5 38.2812V11.7188C50.5 5.24666 45.2533 0 38.7812 0Z" fill="#0277BD"/>
<path d="M10.9986 20.049L11.5576 26.2877H25.5187V20.049H10.9986ZM25.5186 7.42188H9.875L10.4422 13.6605H25.5186V7.42188ZM25.5186 42.7424V36.2516L25.4912 36.2588L18.5432 34.3828L18.099 29.407H11.8363L12.7104 39.2027L25.4898 42.7504L25.5186 42.7424Z" fill="#EBEBEB"/>
<path d="M33.1793 26.2877L32.4551 34.3787L25.4971 36.2568V42.7473L38.2867 39.2027L38.3805 38.1486L39.8465 21.7244L39.9986 20.049L41.125 7.42188H25.4971V13.6605H34.2879L33.7203 20.049H25.4971V26.2877H33.1793Z" fill="white"/>
</g>
<defs>
<clipPath id="clip0_19_294">
<rect width="50" height="50" fill="white" transform="translate(0.5)"/>
</clipPath>
</defs>
</svg>
